<svg width="27" height="16" viewBox="0 0 27 16" fill="none" xmlns="http://www.w3.org/2000/svg">
<path fill-rule="evenodd" clip-rule="evenodd" d="M6.34229 2.57269e-05C9.83407 0.00973445 12.657 2.72103 12.6473 6.05586C12.6473 15.8829 5.03622 16 4.95758 16C4.47358 16 4.0812 15.6256 4.0812 15.1637V11.6845C1.61823 10.7926 -0.00727203 8.53624 2.44632e-05 6.02091C0.00975312 2.68608 2.84971 -0.00960532 6.34229 2.57269e-05Z" fill="#0156FE"/>
<path fill-rule="evenodd" clip-rule="evenodd" d="M20.2817 2.57269e-05C23.7524 0.00973445 26.5566 2.72103 26.5469 6.05586C26.5469 15.8829 18.9845 16 18.9059 16C18.4259 16 18.036 15.6256 18.036 15.1637V11.6845C15.5892 10.7926 13.9734 8.53624 13.9807 6.02091C13.9905 2.68608 16.8118 -0.00960533 20.2817 2.57269e-05Z" fill="#0156FE"/>
</svg>
